name Run_50002_GRF.mot
datacolumns 19
datarows 25
range 0.549 0.573
endheader
time	     ground_force_vx	     ground_force_vy	     ground_force_vz	     ground_force_px	     ground_force_py	     ground_force_pz	   l_ground_force_vx	   l_ground_force_vy	   l_ground_force_vz	   l_ground_force_px	   l_ground_force_py	   l_ground_force_pz	     ground_torque_x	     ground_torque_y	     ground_torque_z	   l_ground_torque_x	   l_ground_torque_y	   l_ground_torque_z	
0.549	          0.00000000	          0.00000000	          0.00000000	          0.00000000	          0.00000000	          0.00000000	          0.00000000	          0.00000000	          0.00000000	          0.00000000	          0.00000000	          0.00000000	          0.00000000	          0.00000000	          0.00000000	          0.00000000	          0.00000000	          0.00000000	
0.55	         -4.49090600	         10.75698600	         -3.51596000	          1.09230300	          0.00000000	         -0.22899400	          0.00000000	          0.00000000	          0.00000000	          0.00000000	          0.00000000	          0.00000000	          0.00000000	         -0.42537000	          0.00000000	          0.00000000	          0.00000000	          0.00000000	
0.551	         -5.25623400	         11.72548000	         -3.91196400	          1.09229500	          0.00000000	         -0.23703500	          0.00000000	          0.00000000	          0.00000000	          0.00000000	          0.00000000	          0.00000000	          0.00000000	         -0.28605500	          0.00000000	          0.00000000	          0.00000000	          0.00000000	
0.552	         -6.13112400	         12.89138500	         -4.34027500	          1.09573700	          0.00000000	         -0.24483700	          0.00000000	          0.00000000	          0.00000000	          0.00000000	          0.00000000	          0.00000000	          0.00000000	         -0.14097900	          0.00000000	          0.00000000	          0.00000000	          0.00000000	
0.553	         -7.12994000	         14.29046500	         -4.80220200	          1.10206200	          0.00000000	         -0.25224400	          0.00000000	          0.00000000	          0.00000000	          0.00000000	          0.00000000	          0.00000000	         -0.00000000	          0.00947900	         -0.00000000	          0.00000000	          0.00000000	          0.00000000	
0.554	         -8.26894000	         15.96186900	         -5.29887700	          1.11058000	          0.00000000	         -0.25913000	          0.00000000	          0.00000000	          0.00000000	          0.00000000	          0.00000000	          0.00000000	         -0.00000000	          0.16489800	         -0.00000000	          0.00000000	          0.00000000	          0.00000000	
0.555	         -9.56641500	         17.94805100	         -5.83121900	          1.12055800	          0.00000000	         -0.26540300	          0.00000000	          0.00000000	          0.00000000	          0.00000000	          0.00000000	          0.00000000	         -0.00000000	          0.32481800	         -0.00000000	          0.00000000	          0.00000000	          0.00000000	
0.556	        -11.04274800	         20.29464300	         -6.39988900	          1.13130100	          0.00000000	         -0.27101500	          0.00000000	          0.00000000	          0.00000000	          0.00000000	          0.00000000	          0.00000000	         -0.00000000	          0.48874000	         -0.00000000	          0.00000000	          0.00000000	          0.00000000	
0.557	        -12.72038100	         23.05024500	         -7.00525300	          1.14221000	          0.00000000	         -0.27595500	          0.00000000	          0.00000000	          0.00000000	          0.00000000	          0.00000000	          0.00000000	         -0.00000000	          0.65612700	         -0.00000000	          0.00000000	          0.00000000	          0.00000000	
0.558	        -14.62365000	         26.26615500	         -7.64733900	          1.15281100	          0.00000000	         -0.28024600	          0.00000000	          0.00000000	          0.00000000	          0.00000000	          0.00000000	          0.00000000	         -0.00000000	          0.82640700	         -0.00000000	          0.00000000	          0.00000000	          0.00000000	
0.559	        -16.77849200	         29.99599500	         -8.32580500	          1.16276400	          0.00000000	         -0.28392900	          0.00000000	          0.00000000	          0.00000000	          0.00000000	          0.00000000	          0.00000000	         -0.00000000	          0.99897300	         -0.00000000	          0.00000000	          0.00000000	          0.00000000	
0.56	        -19.21200800	         34.29523500	         -9.03989700	          1.17185200	          0.00000000	         -0.28706300	          0.00000000	          0.00000000	          0.00000000	          0.00000000	          0.00000000	          0.00000000	         -0.00000000	          1.17318600	         -0.00000000	          0.00000000	          0.00000000	          0.00000000	
0.561	        -21.95185100	         39.22061500	         -9.78842300	          1.17996500	          0.00000000	         -0.28971100	          0.00000000	          0.00000000	          0.00000000	          0.00000000	          0.00000000	          0.00000000	         -0.00000000	          1.34837600	         -0.00000000	          0.00000000	          0.00000000	          0.00000000	
0.562	        -25.02549900	         44.82943000	        -10.56972300	          1.18707300	          0.00000000	         -0.29193700	          0.00000000	          0.00000000	          0.00000000	          0.00000000	          0.00000000	          0.00000000	         -0.00000000	          1.52384700	         -0.00000000	          0.00000000	          0.00000000	          0.00000000	
0.563	        -28.45933000	         51.17869600	        -11.38164600	          1.19320500	          0.00000000	         -0.29380300	          0.00000000	          0.00000000	          0.00000000	          0.00000000	          0.00000000	          0.00000000	         -0.00000000	          1.69887700	         -0.00000000	          0.00000000	          0.00000000	          0.00000000	
0.564	        -32.27759900	         58.32421500	        -12.22153200	          1.19842600	          0.00000000	         -0.29536300	          0.00000000	          0.00000000	          0.00000000	          0.00000000	          0.00000000	          0.00000000	         -0.00000000	          1.87272200	         -0.00000000	          0.00000000	          0.00000000	          0.00000000	
0.565	        -36.50128600	         66.31947300	        -13.08620200	          1.20282300	          0.00000000	         -0.29666900	          0.00000000	          0.00000000	          0.00000000	          0.00000000	          0.00000000	          0.00000000	         -0.00000000	          2.04461800	         -0.00000000	          0.00000000	          0.00000000	          0.00000000	
0.566	        -41.14683500	         75.21449300	        -13.97195100	          1.20649100	          0.00000000	         -0.29776300	          0.00000000	          0.00000000	          0.00000000	          0.00000000	          0.00000000	          0.00000000	         -0.00000000	          2.21378800	         -0.00000000	          0.00000000	          0.00000000	          0.00000000	
0.567	        -46.22485700	         85.05458800	        -14.87455000	          1.20952600	          0.00000000	         -0.29868200	          0.00000000	          0.00000000	          0.00000000	          0.00000000	          0.00000000	          0.00000000	         -0.00000000	          2.37943900	         -0.00000000	          0.00000000	          0.00000000	          0.00000000	
0.568	        -51.73881100	         95.87906600	        -15.78925700	          1.21201800	          0.00000000	         -0.29945800	          0.00000000	          0.00000000	          0.00000000	          0.00000000	          0.00000000	          0.00000000	         -0.00000000	          2.54077400	         -0.00000000	          0.00000000	          0.00000000	          0.00000000	
0.569	        -57.68370400	        107.72000900	        -16.71083300	          1.21404800	          0.00000000	         -0.30011800	          0.00000000	          0.00000000	          0.00000000	          0.00000000	          0.00000000	          0.00000000	         -0.00000000	          2.69698600	         -0.00000000	          0.00000000	          0.00000000	          0.00000000	
0.57	        -64.04489100	        120.60103600	        -17.63356200	          1.21568400	          0.00000000	         -0.30068300	          0.00000000	          0.00000000	          0.00000000	          0.00000000	          0.00000000	          0.00000000	         -0.00000000	          2.84727300	         -0.00000000	          0.00000000	          0.00000000	          0.00000000	
0.571	        -70.79700500	        134.53633100	        -18.55128300	          1.21698600	          0.00000000	         -0.30117300	          0.00000000	          0.00000000	          0.00000000	          0.00000000	          0.00000000	          0.00000000	         -0.00000000	          2.99083300	         -0.00000000	          0.00000000	          0.00000000	          0.00000000	
0.572	        -77.90316000	        149.52973900	        -19.45743400	          1.21799800	          0.00000000	         -0.30160500	          0.00000000	          0.00000000	          0.00000000	          0.00000000	          0.00000000	          0.00000000	         -0.00000000	          3.12687200	         -0.00000000	          0.00000000	          0.00000000	          0.00000000	
0.573	        -85.31433100	        165.57434100	        -20.34509100	          1.21875400	          0.00000000	         -0.30199100	          0.00000000	          0.00000000	          0.00000000	          0.00000000	          0.00000000	          0.00000000	         -0.00000000	          3.25460800	         -0.00000000	          0.00000000	          0.00000000	          0.00000000	
